<svg xmlns="http://www.w3.org/2000/svg" version="1.1" xmlns:xlink="http://www.w3.org/1999/xlink" xmlns:svgjs="http://svgjs.dev/svgjs" width="1920" height="1080" preserveAspectRatio="none" viewBox="0 0 1920 1080"><g mask="url(&quot;#SvgjsMask1026&quot;)" fill="none"><rect width="1920" height="1080" x="0" y="0" fill="rgba(73, 80, 87, 1)"></rect><path d="M1920 0L1860.61 0L1920 293.88z" fill="rgba(255, 255, 255, .1)"></path><path d="M1860.61 0L1920 293.88L1920 392.56L1580.77 0z" fill="rgba(255, 255, 255, .075)"></path><path d="M1580.77 0L1920 392.56L1920 424.86L975.43 0z" fill="rgba(255, 255, 255, .05)"></path><path d="M975.4300000000001 0L1920 424.86L1920 889.29L370.24 0z" fill="rgba(255, 255, 255, .025)"></path><path d="M0 1080L688.39 1080L0 973.76z" fill="rgba(0, 0, 0, .1)"></path><path d="M0 973.76L688.39 1080L974.71 1080L0 648.46z" fill="rgba(0, 0, 0, .075)"></path><path d="M0 648.46L974.71 1080L1355.3600000000001 1080L0 243.21000000000004z" fill="rgba(0, 0, 0, .05)"></path><path d="M0 243.21000000000004L1355.3600000000001 1080L1732.6200000000001 1080L0 71.97000000000003z" fill="rgba(0, 0, 0, .025)"></path></g><defs><mask id="SvgjsMask1026"><rect width="1920" height="1080" fill="#ffffff"></rect></mask></defs></svg>