<svg xmlns="http://www.w3.org/2000/svg" version="1.1" xmlns:xlink="http://www.w3.org/1999/xlink" xmlns:svgjs="http://svgjs.dev/svgjs" width="1920" height="1080" preserveAspectRatio="none" viewBox="0 0 1920 1080"><g mask="url(&quot;#SvgjsMask1020&quot;)" fill="none"><rect width="1920" height="1080" x="0" y="0" fill="rgba(73, 80, 87, 1)"></rect><path d="M0,872.387C166.17,887.188,358.12,854.618,469.289,730.227C579.194,607.251,514.913,413.167,553.68,252.857C583.082,131.273,651.497,27.63,669.142,-96.208C692.503,-260.161,791.454,-467.457,672.771,-582.959C550.352,-702.096,341.063,-568.979,170.686,-581.303C46.55,-590.282,-69.585,-678.707,-189.485,-645.328C-309.836,-611.823,-371.561,-485.507,-466.23,-403.991C-580.839,-305.306,-769.423,-262.778,-804.593,-115.683C-839.373,29.78,-699.074,154.954,-631.811,288.538C-567.437,416.385,-523.598,554.009,-418.472,651.155C-300.194,760.454,-160.411,858.099,0,872.387" fill="#3a4046"></path><path d="M1920 1505.229C2019.145 1505.949 2127.188 1585.776 2210.225 1531.599 2293.366 1477.354 2275.879 1350.472 2303.392 1255.089 2326.446 1175.164 2356.478 1100.082 2358.678 1016.928 2361.235 920.3050000000001 2372.195 815.323 2317.13 735.885 2260.535 654.241 2159.898 615.31 2063.538 591.156 1969.704 567.635 1869.833 566.794 1779.379 601.088 1692.519 634.019 1631.32 706.9490000000001 1571.242 777.8 1511.758 847.95 1457.6770000000001 921.418 1432.6970000000001 1009.936 1405.1779999999999 1107.45 1385.251 1213.022 1421.743 1307.546 1459.059 1404.204 1536.162 1489.195 1632.47 1527.405 1723.669 1563.588 1821.888 1504.517 1920 1505.229" fill="#586068"></path></g><defs><mask id="SvgjsMask1020"><rect width="1920" height="1080" fill="#ffffff"></rect></mask></defs></svg>